<svg viewBox="0 0 896 504" height="504" width="896" xmlns="http://www.w3.org/2000/svg" version="1.1"><g transform-origin="center" transform="scale(1, 1) rotate(0)"><rect x="0" y="0" width="896" height="504" fill="#002438"></rect><linearGradient id="linear-gradient-r0"><stop offset="0%" stop-color="#ff0005ff" stop-opacity="100%"></stop><stop offset="100%" stop-color="#ff0092ff" stop-opacity="100%"></stop></linearGradient><filter id="shadow-r0" x="0" width="100%" y="-20%" height="150%"><feDropShadow dx="0" dy="0" stdDeviation="10" flood-color="#00000061"></feDropShadow></filter><path d="M0 0 0,385.8351732248068 C 29.86666666666667,381.8670005975068 89.6,382.39818334499 149.33333333333334,365.99431008830663 C 209.0666666666667,349.59043683162326 238.93333333333334,312.75357621020083 298.6666666666667,303.81580694139006 C 358.40000000000003,294.8780376725793 388.26666666666665,316.7809751459062 448,321.3054637442529 C 507.73333333333335,325.8299523425996 537.6,318.0751519355178 597.3333333333334,326.4382499331236 C 657.0666666666667,334.8013479307294 686.9333333333334,355.55228983801607 746.6666666666667,363.1209537322819 C 806.4000000000001,370.68961762654783 866.1333333333333,364.0494462700188 896,364.281569404453 L896 504 L0 504Z" fill="none" stroke-linecap="round" stroke-width="1" style="transition: all 0.4s cubic-bezier(0.16, 1, 0.3, 1) 0s; fill: url(&quot;#linear-gradient-r0&quot;);" filter="url(#shadow-r0)"></path><path d="M0 0 0,407.400117476061 C 29.866666666666674,416.55623679735885 89.60000000000001,443.7349014049843 149.33333333333334,453.18071408255025 C 209.06666666666666,462.62652676011623 238.93333333333334,461.08547129856794 298.6666666666667,454.6291808638908 C 358.40000000000003,448.1728904292136 388.26666666666665,419.246684652362 448,420.89926190916447 C 507.73333333333335,422.55183916596695 537.6,458.0671672633589 597.3333333333334,462.89206714790316 C 657.0666666666667,467.7169670324475 686.9333333333334,454.9413087059632 746.6666666666667,445.023761331886 C 806.4000000000001,435.10621395780885 866.1333333333333,419.64821648839114 896,413.3043302775174 L896 504 L0 504Z" fill="none" stroke-linecap="round" stroke-width="1" style="transition: all 0.4s cubic-bezier(0.16, 1, 0.3, 1) 0s; fill: url(&quot;#linear-gradient-r0&quot;);" filter="url(#shadow-r0)"></path><path d="M0 0 0,554.881746628806 C 29.86666666666667,550.5978984299899 89.6,545.3509487508684 149.33333333333334,533.4625056347251 C 209.0666666666667,521.5740625185817 238.93333333333337,488.80057683415714 298.6666666666667,495.4395310480893 C 358.40000000000003,502.07848526202145 388.26666666666665,550.7577593994587 448,566.6572767043858 C 507.73333333333335,582.556794009313 537.6,583.3782942352294 597.3333333333334,574.9371175727248 C 657.0666666666667,566.4959409102202 686.9333333333334,546.8399845237211 746.6666666666667,524.4513933918626 C 806.4000000000001,502.06280226000405 866.1333333333333,475.28560820911827 896,462.9941619134322 L896 504 L0 504Z" fill="none" stroke-linecap="round" stroke-width="1" style="transition: all 0.4s cubic-bezier(0.16, 1, 0.3, 1) 0s; fill: url(&quot;#linear-gradient-r0&quot;);" filter="url(#shadow-r0)"></path></g></svg>